<?xml version="1.0" encoding="UTF-8"?>
<svg width="24" height="24" viewBox="0 0 24 24" fill="none" xmlns="http://www.w3.org/2000/svg">
  <path d="M21 8c-1.45 0-2.26 1.44-1.93 2.51l-3.55 3.56c-.3-.09-.74-.09-1.04 0l-2.55-2.55C12.27 10.45 11.46 9 10 9c-1.45 0-2.27 1.44-1.93 2.52l-4.56 4.55C2.44 15.74 1 16.55 1 18c0 1.1.9 2 2 2 1.45 0 2.26-1.44 1.93-2.51l4.55-4.56c.3.09.74.09 1.04 0l2.55 2.55C12.73 16.55 13.54 18 15 18c1.45 0 2.27-1.44 1.93-2.52l3.56-3.55c1.07.33 2.51-.48 2.51-1.93 0-1.1-.9-2-2-2z" fill="currentColor"/>
</svg> 